<?xml version="1.0" encoding="UTF-8" standalone="no"?>
<svg
   viewBox="0 0 101 101"
   id="user"
   version="1.1"
   sodipodi:docname="user.svg"
   inkscape:version="1.3.2 (091e20e, 2023-11-25, custom)"
   xmlns:inkscape="http://www.inkscape.org/namespaces/inkscape"
   xmlns:sodipodi="http://sodipodi.sourceforge.net/DTD/sodipodi-0.dtd"
   xmlns="http://www.w3.org/2000/svg"
   xmlns:svg="http://www.w3.org/2000/svg">
  <defs
     id="defs1" />
  <sodipodi:namedview
     id="namedview1"
     pagecolor="#00ffff"
     bordercolor="#000000"
     borderopacity="0.25"
     inkscape:showpageshadow="2"
     inkscape:pageopacity="0.0"
     inkscape:pagecheckerboard="0"
     inkscape:deskcolor="#d1d1d1"
     inkscape:zoom="5.9306931"
     inkscape:cx="50.415693"
     inkscape:cy="50.668614"
     inkscape:window-width="1440"
     inkscape:window-height="837"
     inkscape:window-x="-8"
     inkscape:window-y="-8"
     inkscape:window-maximized="1"
     inkscape:current-layer="user" />
  <path
     d="M50.4 54.5c10.1 0 18.2-8.2 18.2-18.2S60.5 18 50.4 18s-18.2 8.2-18.2 18.2 8.1 18.3 18.2 18.3zm0-31.7c7.4 0 13.4 6 13.4 13.4s-6 13.4-13.4 13.4S37 43.7 37 36.3s6-13.5 13.4-13.5zM18.8 83h63.4c1.3 0 2.4-1.1 2.4-2.4 0-12.6-10.3-22.9-22.9-22.9H39.3c-12.6 0-22.9 10.3-22.9 22.9 0 1.3 1.1 2.4 2.4 2.4zm20.5-20.5h22.4c9.2 0 16.7 6.8 17.9 15.7H21.4c1.2-8.9 8.7-15.7 17.9-15.7z"
     id="path1"
     style="fill:#ffffff" />
  <rect
     style="fill:#ffffff;stroke-width:7.10292;stroke-linejoin:bevel;stroke-dasharray:42.6176, 7.10292"
     id="rect1"
     width="58.531517"
     height="20.5"
     x="21.234241"
     y="62.162773"
     ry="10.25" />
  <rect
     style="fill:#ffffff;stroke-width:3.4885;stroke-linejoin:bevel;stroke-dasharray:20.931, 3.4885"
     id="rect2"
     width="3.5189345"
     height="7.7425051"
     x="21.234241"
     y="72.412773"
     ry="1.7594672" />
  <rect
     style="fill:#ffffff;stroke-width:3.4885;stroke-linejoin:bevel;stroke-dasharray:20.931, 3.4885"
     id="rect3"
     width="4.7323737"
     height="7.7425051"
     x="75.033386"
     y="72.412773"
     ry="1.7594672" />
  <path
     style="fill:#ffffff;stroke-width:4.69566;stroke-linejoin:bevel;stroke-dasharray:28.174, 4.69566"
     id="path3"
     sodipodi:type="arc"
     sodipodi:cx="50.5"
     sodipodi:cy="35.936142"
     sodipodi:rx="18.195606"
     sodipodi:ry="16.25"
     sodipodi:start="0.068321299"
     sodipodi:end="0.045691072"
     sodipodi:open="true"
     sodipodi:arc-type="arc"
     d="M 68.653156,37.0455 A 18.195606,16.25 0 0 1 49.360541,52.154248 18.195606,16.25 0 0 1 32.333951,35.010293 18.195606,16.25 0 0 1 51.433909,19.70756 18.195606,16.25 0 0 1 68.676616,36.678364" />
</svg>
