<?xml version="1.0" encoding="UTF-8" standalone="no"?>
<svg
   version="1.1"
   id="Layer_1"
   x="0px"
   y="0px"
   viewBox="0 0 122.88 122.88"
   style="enable-background:new 0 0 122.88 122.88"
   xml:space="preserve"
   sodipodi:docname="clock-icon.svg"
   inkscape:version="1.3.2 (091e20e, 2023-11-25, custom)"
   xmlns:inkscape="http://www.inkscape.org/namespaces/inkscape"
   xmlns:sodipodi="http://sodipodi.sourceforge.net/DTD/sodipodi-0.dtd"
   xmlns="http://www.w3.org/2000/svg"
   xmlns:svg="http://www.w3.org/2000/svg"><defs
     id="defs1" /><sodipodi:namedview
     id="namedview1"
     pagecolor="#ffffff"
     bordercolor="#000000"
     borderopacity="0.25"
     inkscape:showpageshadow="2"
     inkscape:pageopacity="0.0"
     inkscape:pagecheckerboard="0"
     inkscape:deskcolor="#d1d1d1"
     inkscape:zoom="4.5735678"
     inkscape:cx="61.439999"
     inkscape:cy="61.549323"
     inkscape:window-width="1440"
     inkscape:window-height="837"
     inkscape:window-x="-8"
     inkscape:window-y="-8"
     inkscape:window-maximized="1"
     inkscape:current-layer="g1" /><style
     type="text/css"
     id="style1">.st0{fill-rule:evenodd;clip-rule:evenodd;}</style><g
     id="g1"><path
       style="fill:#3572cc;fill-opacity:1;stroke-width:0.762753;stroke-linejoin:bevel;stroke-dasharray:4.57652, 0.762753"
       d="M 56.301778,122.3129 C 55.94101,122.2624 54.514333,122.0675 53.131387,121.87983 37.830844,119.8035 23.461699,111.6154 13.75116,99.439427 6.7941807,90.716121 2.4977797,80.543848 0.84143733,68.87402 0.40286347,65.78403 0.45579794,56.336489 0.92933532,53.186322 1.7082189,48.004871 3.0345548,43.111896 4.8422254,38.751316 7.0399868,33.449735 10.672185,27.275137 14.132618,22.958007 16.07599,20.533515 20.823778,15.782748 23.176654,13.908295 31.952871,6.9165969 42.456358,2.4110103 53.448793,0.9227289 57.120249,0.42564548 66.522606,0.4367379 69.81534,0.94203731 77.069191,2.0552059 83.337778,4.1395606 90.076852,7.6791515 98.845601,12.284796 106.58183,19.245914 112.15986,27.549608 c 4.61455,6.869427 8.10163,15.58407 9.53638,23.832597 0.47371,2.723384 0.6765,13.306 0.32997,17.219271 -0.56373,6.366071 -2.91668,13.889207 -6.55011,20.942816 -8.94571,17.366378 -25.671589,29.259308 -45.508842,32.359048 -2.188862,0.34203 -12.039425,0.63725 -13.66548,0.40956 z m 13.337509,-13.83736 c 11.781225,-2.24051 21.122306,-7.69049 28.713797,-16.752837 6.937006,-8.281058 10.752106,-18.919879 10.752106,-29.983411 0,-9.059362 -2.11246,-17.122109 -6.3799,-24.350538 C 95.637727,25.38347 84.283167,17.319762 70.513878,14.513068 c -2.929241,-0.597088 -3.3106,-0.623265 -8.855232,-0.607834 -6.325704,0.0176 -8.07074,0.211621 -12.662716,1.407859 -12.983218,3.382208 -24.391592,12.767394 -30.422626,25.027404 -3.122843,6.34818 -4.511476,12.029808 -4.734515,19.371385 -0.186545,6.14034 0.559269,11.736876 2.231477,16.744844 5.799501,17.368486 20.747533,29.742524 39.02895,32.308294 3.409518,0.47852 11.330964,0.32081 14.540071,-0.28948 z"
       id="path4" /><path
       style="fill:#3572cc;fill-opacity:1;stroke-width:0.762753;stroke-linejoin:bevel;stroke-dasharray:4.57652, 0.762753"
       d="m 50.676148,58.215013 c 0.06551,-17.840081 0.265694,-25.693523 0.674321,-26.453855 0.144654,-0.269157 0.530743,-0.564331 0.857976,-0.655943 1.04284,-0.291953 8.62511,-0.200511 9.169465,0.110583 0.93775,0.535915 0.995153,1.365331 1.133414,16.376757 0.07218,7.836832 0.185792,14.30323 0.25247,14.369773 0.06668,0.06655 6.117752,0.21644 13.446833,0.333101 7.329079,0.116662 13.620773,0.298546 13.981542,0.404188 1.078915,0.315933 1.195791,0.839128 1.199339,5.368848 0.0034,4.317113 -0.04867,4.598686 -1.048315,5.670466 l -0.560809,0.601281 -19.582723,6.8e-5 -19.582723,6.8e-5 z"
       id="path5" /></g></svg>
